<svg width="76" height="76" viewBox="0 0 76 76" fill="none" xmlns="http://www.w3.org/2000/svg">
<path d="M73.4313 51.7062C72.3396 54.9801 72.3396 58.5199 73.4313 61.7938C73.9736 63.4206 74.25 65.1242 74.25 66.8391V69.8312C74.2499 70.7052 73.9907 71.5595 73.5051 72.2861C73.0195 73.0128 72.3294 73.5791 71.522 73.9136C70.7146 74.2481 69.8261 74.3356 68.9689 74.1652C68.1118 73.9948 67.3243 73.5741 66.7062 72.9563L65.5 71.75L64.7672 72.4828C63.6354 73.6144 62.1004 74.25 60.5 74.25C58.8996 74.25 57.3646 73.6144 56.2328 72.4828L55.5 71.75L54.2937 72.9563C53.6757 73.5741 52.8882 73.9948 52.0311 74.1652C51.1739 74.3356 50.2854 74.2481 49.478 73.9136C48.6706 73.5791 47.9805 73.0128 47.4949 72.2861C47.0093 71.5595 46.7501 70.7052 46.75 69.8312V66.8391C46.7502 65.1242 47.0266 63.4206 47.5687 61.7938C48.6604 58.5199 48.6604 54.9801 47.5687 51.7062C47.0355 50.1079 46.7597 48.4349 46.7516 46.75C46.75 46.7203 46.75 46.6906 46.75 46.6609V29.25C46.75 27.6647 47.0623 26.0949 47.669 24.6303C48.2757 23.1657 49.1649 21.835 50.2859 20.7141L51.9641 19.0359C53.9212 17.0765 55.1462 14.5044 55.4344 11.75C55.4782 11.3348 55.5001 10.9175 55.5 10.5V8H65.5V10.5C65.4999 10.9175 65.5218 11.3348 65.5656 11.75C65.8538 14.5044 67.0788 17.0765 69.0359 19.0359L70.7141 20.7141C72.9779 22.978 74.2498 26.0484 74.25 29.25V46.6609C74.25 46.6906 74.25 46.7203 74.2484 46.75C74.2453 47.5765 74.1769 48.4015 74.0437 49.2172C73.9069 50.062 73.7021 50.8944 73.4313 51.7062Z" fill="#EBEBE9"/>
<path d="M73.4313 51.7062C72.3396 54.9801 72.3396 58.5199 73.4313 61.7938C73.9736 63.4206 74.25 65.1242 74.25 66.8391V69.8312C74.2499 70.7052 73.9907 71.5595 73.5051 72.2861C73.0195 73.0128 72.3294 73.5791 71.522 73.9136C70.7146 74.2481 69.8261 74.3356 68.9689 74.1652C68.1118 73.9948 67.3243 73.5741 66.7062 72.9562L65.5 71.75L64.7672 72.4828C63.6354 73.6144 62.1004 74.25 60.5 74.25C58.8996 74.25 57.3646 73.6144 56.2328 72.4828L55.5 71.75L54.2937 72.9562C53.6757 73.5741 52.8882 73.9948 52.0311 74.1652C51.1739 74.3356 50.2854 74.2481 49.478 73.9136C48.6706 73.5791 47.9805 73.0128 47.4949 72.2861C47.0093 71.5595 46.7501 70.7052 46.75 69.8312V66.8391C46.7502 65.1242 47.0266 63.4206 47.5687 61.7938C48.6589 58.5196 48.6589 54.9804 47.5687 51.7062C47.0355 50.1079 46.7597 48.4349 46.7516 46.75H46.75V29.25C46.75 27.6647 47.0623 26.095 47.669 24.6303C48.2757 23.1657 49.1649 21.835 50.2859 20.7141L51.9641 19.0359C52.9866 18.0141 53.8165 16.8163 54.4141 15.5H66.5859C67.1835 16.8163 68.0134 18.0141 69.0359 19.0359L70.7141 20.7141C72.636 22.6353 73.8527 25.1492 74.1672 27.8484C74.2222 28.3136 74.2499 28.7816 74.25 29.25V46.75H74.2484C74.2453 47.5765 74.1769 48.4015 74.0437 49.2172C73.9069 50.062 73.7021 50.8944 73.4313 51.7062Z" fill="#7EB457"/>
<path d="M73.4313 51.7062C72.3396 54.9801 72.3396 58.5198 73.4313 61.7937C73.9736 63.4205 74.25 65.1242 74.25 66.839V69.8312C74.2499 70.7052 73.9907 71.5594 73.5051 72.2861C73.0195 73.0127 72.3294 73.5791 71.522 73.9136C70.7146 74.248 69.8261 74.3356 68.9689 74.1652C68.1118 73.9948 67.3243 73.5741 66.7062 72.9562L65.5 71.75L64.7672 72.4828C63.6354 73.6143 62.1004 74.25 60.5 74.25C58.8996 74.25 57.3646 73.6143 56.2328 72.4828L55.5 71.75L54.2937 72.9562C53.6757 73.5741 52.8882 73.9948 52.0311 74.1652C51.1739 74.3356 50.2854 74.248 49.478 73.9136C48.6706 73.5791 47.9805 73.0127 47.4949 72.2861C47.0093 71.5594 46.7501 70.7052 46.75 69.8312V66.839C46.7502 65.1242 47.0266 63.4206 47.5687 61.7937C48.3404 59.4821 48.5708 57.0241 48.2422 54.6093C58.125 48.8296 67.1156 40.2015 74.1672 27.8484C74.2222 28.3135 74.2499 28.7815 74.25 29.25V46.75H74.2484C74.2453 47.5765 74.1769 48.4014 74.0437 49.2171C73.9069 50.062 73.7021 50.8943 73.4313 51.7062Z" fill="#79AD54"/>
<path d="M46.75 29.25H74.25V46.75H46.75V29.25Z" fill="#D0D24B"/>
<path d="M74.2502 29.25V46.75H59.0518C64.3236 42.0531 69.158 36.2781 73.3518 29.25H74.2502Z" fill="#C7C934"/>
<path d="M50.5 33H53V35.5H50.5V33Z" fill="#DEE051"/>
<path d="M50.5 38H53V43H50.5V38Z" fill="#DEE051"/>
<path d="M65.5658 11.75H55.4346C55.4784 11.3348 55.5003 10.9175 55.5002 10.5V8H65.5002V10.5C65.5001 10.9175 65.522 11.3348 65.5658 11.75Z" fill="#E0E0DE"/>
<path d="M56.75 1.75H64.25C64.5815 1.75 64.8995 1.8817 65.1339 2.11612C65.3683 2.35054 65.5 2.66848 65.5 3V8H55.5V3C55.5 2.66848 55.6317 2.35054 55.8661 2.11612C56.1005 1.8817 56.4185 1.75 56.75 1.75Z" fill="#7EB457"/>
<path d="M54.25 6.75H66.75V9.25H54.25V6.75Z" fill="#EBEBE9"/>
<path d="M28.4312 51.7062C27.3396 54.9801 27.3396 58.5199 28.4312 61.7938C28.9736 63.4206 29.25 65.1242 29.25 66.8391V69.8312C29.2499 70.7052 28.9907 71.5595 28.5051 72.2861C28.0195 73.0128 27.3294 73.5791 26.522 73.9136C25.7146 74.2481 24.8261 74.3356 23.9689 74.1652C23.1118 73.9948 22.3243 73.5741 21.7062 72.9563L20.5 71.75L19.7672 72.4828C18.6354 73.6144 17.1004 74.25 15.5 74.25C13.8996 74.25 12.3646 73.6144 11.2328 72.4828L10.5 71.75L9.29375 72.9563C8.67566 73.5741 7.88825 73.9948 7.03107 74.1652C6.1739 74.3356 5.28544 74.2481 4.47803 73.9136C3.67061 73.5791 2.98049 73.0128 2.49492 72.2861C2.00934 71.5595 1.75011 70.7052 1.75 69.8312V66.8391C1.75018 65.1242 2.02664 63.4206 2.56875 61.7938C3.11075 60.1674 3.3872 58.4643 3.3875 56.75C3.3872 55.0357 3.11075 53.3326 2.56875 51.7062C2.0355 50.1079 1.75966 48.4349 1.75156 46.75C1.75 46.7203 1.75 46.6906 1.75 46.6609V29.25C1.75002 27.6647 2.06229 26.0949 2.66899 24.6303C3.27569 23.1657 4.16493 21.835 5.28594 20.7141L6.96406 19.0359C7.98659 18.0141 8.81653 16.8163 9.41406 15.5C9.95574 14.3138 10.3004 13.0472 10.4344 11.75C10.4782 11.3348 10.5001 10.9175 10.5 10.5V8H20.5V10.5C20.4999 10.9175 20.5218 11.3348 20.5656 11.75C20.8538 14.5044 22.0788 17.0765 24.0359 19.0359L25.7141 20.7141C27.9779 22.978 29.2498 26.0484 29.25 29.25V46.6609C29.25 46.6906 29.25 46.7203 29.2484 46.75C29.2453 47.5765 29.1769 48.4015 29.0437 49.2172C28.9069 50.062 28.7021 50.8944 28.4312 51.7062Z" fill="#EBEBE9"/>
<path d="M28.4312 51.7062C27.3396 54.9801 27.3396 58.5199 28.4312 61.7938C28.9736 63.4206 29.25 65.1242 29.25 66.8391V69.8312C29.2499 70.7052 28.9907 71.5595 28.5051 72.2861C28.0195 73.0128 27.3294 73.5791 26.522 73.9136C25.7146 74.2481 24.8261 74.3356 23.9689 74.1652C23.1118 73.9948 22.3243 73.5741 21.7062 72.9562L20.5 71.75L19.7672 72.4828C18.6354 73.6144 17.1004 74.25 15.5 74.25C13.8996 74.25 12.3646 73.6144 11.2328 72.4828L10.5 71.75L9.29375 72.9562C8.67566 73.5741 7.88825 73.9948 7.03107 74.1652C6.1739 74.3356 5.28544 74.2481 4.47803 73.9136C3.67061 73.5791 2.98049 73.0128 2.49492 72.2861C2.00934 71.5595 1.75011 70.7052 1.75 69.8312V66.8391C1.75018 65.1242 2.02664 63.4206 2.56875 61.7938C3.11075 60.1674 3.3872 58.4643 3.3875 56.75C3.38749 56.034 3.33894 55.3188 3.24219 54.6094C3.10837 53.6228 2.88292 52.6509 2.56875 51.7062C2.0355 50.1079 1.75966 48.4349 1.75156 46.75H1.75V29.25C1.75002 27.6647 2.06229 26.095 2.66899 24.6303C3.27569 23.1657 4.16493 21.835 5.28594 20.7141L6.96406 19.0359C7.98659 18.0141 8.81653 16.8163 9.41406 15.5H21.5859C22.1835 16.8163 23.0134 18.0141 24.0359 19.0359L25.7141 20.7141C27.636 22.6353 28.8527 25.1492 29.1672 27.8484C29.2222 28.3136 29.2499 28.7816 29.25 29.25V46.75H29.2484C29.2453 47.5765 29.1769 48.4015 29.0437 49.2172C28.9069 50.062 28.7021 50.8944 28.4312 51.7062Z" fill="#FA6D00"/>
<path d="M28.4312 51.7062C27.3396 54.9801 27.3396 58.5198 28.4312 61.7937C28.9736 63.4205 29.25 65.1242 29.25 66.839V69.8312C29.2499 70.7052 28.9907 71.5594 28.5051 72.2861C28.0195 73.0127 27.3294 73.5791 26.522 73.9136C25.7146 74.248 24.8261 74.3356 23.9689 74.1652C23.1118 73.9948 22.3243 73.5741 21.7062 72.9562L20.5 71.75L19.7672 72.4828C18.6354 73.6143 17.1004 74.25 15.5 74.25C13.8996 74.25 12.3646 73.6143 11.2328 72.4828L10.5 71.75L9.29375 72.9562C8.67566 73.5741 7.88825 73.9948 7.03107 74.1652C6.1739 74.3356 5.28544 74.248 4.47803 73.9136C3.67061 73.5791 2.98049 73.0127 2.49492 72.2861C2.00934 71.5594 1.75011 70.7052 1.75 69.8312V66.839C1.75018 65.1242 2.02664 63.4206 2.56875 61.7937C3.11075 60.1673 3.3872 58.4643 3.3875 56.75C3.38749 56.0339 3.33894 55.3188 3.24219 54.6093C13.125 48.8296 22.1156 40.2015 29.1672 27.8484C29.2222 28.3135 29.2499 28.7815 29.25 29.25V46.75H29.2484C29.2453 47.5765 29.1769 48.4014 29.0437 49.2171C28.9069 50.062 28.7021 50.8943 28.4312 51.7062Z" fill="#F86400"/>
<path d="M1.75 29.25H29.25V46.75H1.75V29.25Z" fill="#F98500"/>
<path d="M29.2502 29.25V46.75H14.0518C19.3236 42.0531 24.158 36.2781 28.3518 29.25H29.2502Z" fill="#F77C00"/>
<path d="M20.5658 11.75H10.4346C10.4784 11.3348 10.5003 10.9175 10.5002 10.5V8H20.5002V10.5C20.5001 10.9175 20.522 11.3348 20.5658 11.75Z" fill="#E0E0DE"/>
<path d="M11.75 1.75H19.25C19.5815 1.75 19.8995 1.8817 20.1339 2.11612C20.3683 2.35054 20.5 2.66848 20.5 3V8H10.5V3C10.5 2.66848 10.6317 2.35054 10.8661 2.11612C11.1005 1.8817 11.4185 1.75 11.75 1.75Z" fill="#FA6D00"/>
<path d="M9.25 6.75H21.75V9.25H9.25V6.75Z" fill="#EBEBE9"/>
<path d="M50.9313 51.7062C49.8396 54.9801 49.8396 58.5199 50.9313 61.7938C51.4736 63.4206 51.75 65.1242 51.75 66.8391V69.8312C51.7499 70.7052 51.4907 71.5595 51.0051 72.2861C50.5195 73.0128 49.8294 73.5791 49.022 73.9136C48.2146 74.2481 47.3261 74.3356 46.4689 74.1652C45.6118 73.9948 44.8243 73.5741 44.2062 72.9563L43 71.75L42.2672 72.4828C41.1354 73.6144 39.6004 74.25 38 74.25C36.3996 74.25 34.8646 73.6144 33.7328 72.4828L33 71.75L31.7937 72.9563C31.1757 73.5741 30.3882 73.9948 29.5311 74.1652C28.6739 74.3356 27.7854 74.2481 26.978 73.9136C26.1706 73.5791 25.4805 73.0128 24.9949 72.2861C24.5093 71.5595 24.2501 70.7052 24.25 69.8312V66.8391C24.2502 65.1242 24.5266 63.4206 25.0688 61.7938C26.1604 58.5199 26.1604 54.9801 25.0688 51.7062C24.5355 50.1079 24.2597 48.4349 24.2516 46.75C24.25 46.7203 24.25 46.6906 24.25 46.6609V29.25C24.25 27.6647 24.5623 26.0949 25.169 24.6303C25.7757 23.1657 26.6649 21.835 27.7859 20.7141L29.4641 19.0359C31.4212 17.0765 32.6462 14.5044 32.9344 11.75C32.9782 11.3348 33.0001 10.9175 33 10.5V8H43V10.5C42.9999 10.9175 43.0218 11.3348 43.0656 11.75C43.3538 14.5044 44.5788 17.0765 46.5359 19.0359L48.2141 20.7141C50.4779 22.978 51.7498 26.0484 51.75 29.25V46.6609C51.75 46.6906 51.75 46.7203 51.7484 46.75C51.7453 47.5765 51.6769 48.4015 51.5437 49.2172C51.4069 50.062 51.2021 50.8944 50.9313 51.7062Z" fill="#EBEBE9"/>
<path d="M50.9313 51.7062C49.8396 54.9801 49.8396 58.5199 50.9313 61.7938C51.4736 63.4206 51.75 65.1242 51.75 66.8391V69.8312C51.7499 70.7052 51.4907 71.5595 51.0051 72.2861C50.5195 73.0128 49.8294 73.5791 49.022 73.9136C48.2146 74.2481 47.3261 74.3356 46.4689 74.1652C45.6118 73.9948 44.8243 73.5741 44.2062 72.9562L43 71.75L42.2672 72.4828C41.1354 73.6144 39.6004 74.25 38 74.25C36.3996 74.25 34.8646 73.6144 33.7328 72.4828L33 71.75L31.7937 72.9562C31.1757 73.5741 30.3882 73.9948 29.5311 74.1652C28.6739 74.3356 27.7854 74.2481 26.978 73.9136C26.1706 73.5791 25.4805 73.0128 24.9949 72.2861C24.5093 71.5595 24.2501 70.7052 24.25 69.8312V66.8391C24.2502 65.1242 24.5266 63.4206 25.0688 61.7938C26.1589 58.5196 26.1589 54.9804 25.0688 51.7062C24.5355 50.1079 24.2597 48.4349 24.2516 46.75H24.25V29.25C24.25 27.6647 24.5623 26.095 25.169 24.6303C25.7757 23.1657 26.6649 21.835 27.7859 20.7141L29.4641 19.0359C30.4866 18.0141 31.3165 16.8163 31.9141 15.5H44.0859C44.6835 16.8163 45.5134 18.0141 46.5359 19.0359L48.2141 20.7141C50.136 22.6353 51.3527 25.1492 51.6672 27.8484C51.7222 28.3136 51.7499 28.7816 51.75 29.25V46.75H51.7484C51.7453 47.5765 51.6769 48.4015 51.5437 49.2172C51.4069 50.062 51.2021 50.8944 50.9313 51.7062Z" fill="#693924"/>
<path d="M50.9313 51.7062C49.8396 54.9801 49.8396 58.5198 50.9313 61.7937C51.4736 63.4205 51.75 65.1242 51.75 66.839V69.8312C51.7499 70.7052 51.4907 71.5594 51.0051 72.2861C50.5195 73.0127 49.8294 73.5791 49.022 73.9136C48.2146 74.248 47.3261 74.3356 46.4689 74.1652C45.6118 73.9948 44.8243 73.5741 44.2062 72.9562L43 71.75L42.2672 72.4828C41.1354 73.6143 39.6004 74.25 38 74.25C36.3996 74.25 34.8646 73.6143 33.7328 72.4828L33 71.75L31.7937 72.9562C31.1757 73.5741 30.3882 73.9948 29.5311 74.1652C28.6739 74.3356 27.7854 74.248 26.978 73.9136C26.1706 73.5791 25.4805 73.0127 24.9949 72.2861C24.5093 71.5594 24.2501 70.7052 24.25 69.8312V66.839C24.2502 65.1242 24.5266 63.4206 25.0688 61.7937C25.8404 59.4821 26.0708 57.0241 25.7422 54.6093C35.625 48.8296 44.6156 40.2015 51.6672 27.8484C51.7222 28.3135 51.7499 28.7815 51.75 29.25V46.75H51.7484C51.7453 47.5765 51.6769 48.4014 51.5437 49.2171C51.4069 50.062 51.2021 50.8943 50.9313 51.7062Z" fill="#5C2E1A"/>
<path d="M24.25 29.25H51.75V46.75H24.25V29.25Z" fill="#F35244"/>
<path d="M51.7502 29.25V46.75H36.5518C41.8236 42.0531 46.658 36.2781 50.8517 29.25H51.7502Z" fill="#E64C3F"/>
<path d="M43.0658 11.75H32.9346C32.9784 11.3348 33.0003 10.9175 33.0002 10.5V8H43.0002V10.5C43.0001 10.9175 43.022 11.3348 43.0658 11.75Z" fill="#E0E0DE"/>
<path d="M34.25 1.75H41.75C42.0815 1.75 42.3995 1.8817 42.6339 2.11612C42.8683 2.35054 43 2.66848 43 3V8H33V3C33 2.66848 33.1317 2.35054 33.3661 2.11612C33.6005 1.8817 33.9185 1.75 34.25 1.75Z" fill="#F35244"/>
<path d="M31.75 6.75H44.25V9.25H31.75V6.75Z" fill="#EBEBE9"/>
<path d="M64.25 36.75V45.9172C64.2502 48.9309 63.5483 51.9032 62.2 54.5984C61.0784 56.8455 60.4019 59.2883 60.2078 61.7922L59.25 74.25H44.25L43.2922 61.7922C43.0985 59.2882 42.422 56.8454 41.3 54.5984C39.9507 51.9035 39.2488 48.931 39.25 45.9172V36.75H64.25Z" fill="#EBEBE9"/>
<path d="M64.25 43V45.9172C64.25 46.4781 64.225 47.0375 64.1781 47.5937C63.9664 50.0325 63.2952 52.4092 62.2 54.5984C61.0784 56.8455 60.4019 59.2883 60.2078 61.7922L59.25 74.25H44.25L43.7578 67.85L43.2922 61.7922C43.0985 59.2882 42.422 56.8454 41.3 54.5984C39.9507 51.9035 39.2488 48.931 39.25 45.9172V43H64.25Z" fill="#F98500"/>
<path d="M64.1781 47.5938C63.9664 50.0325 63.2952 52.4092 62.2 54.5984C61.0784 56.8455 60.4019 59.2883 60.2078 61.7922L59.25 74.25H44.25L43.7578 67.85C51.1484 63.0719 58.0953 56.4609 64.1781 47.5938Z" fill="#F77C00"/>
<path d="M74.486 24.1527C73.8177 22.5355 72.8362 21.0665 71.5979 19.8302L69.9198 18.152C67.8921 16.1214 66.7522 13.3697 66.7499 10.5V9.25H67.9999V6.75H66.7499V3C66.7491 2.3372 66.4855 1.70177 66.0168 1.2331C65.5482 0.76443 64.9127 0.500786 64.2499 0.5H56.7499C56.0871 0.500786 55.4517 0.76443 54.983 1.2331C54.5144 1.70177 54.2507 2.3372 54.2499 3V6.75H52.9999V9.25H54.2499V10.5C54.2477 13.3697 53.1078 16.1214 51.0801 18.152L52.8479 19.9198C55.3445 17.4204 56.7478 14.0327 56.7499 10.5V9.25H64.2499V10.5C64.2521 14.0327 65.6554 17.4204 68.152 19.9198L69.8301 21.598C71.5552 23.3212 72.6461 25.5777 72.9251 28H55.4999V30.5H72.9999V45.5H67.9999V48H72.9374C72.9062 48.3405 72.8652 48.68 72.8104 49.0156C72.6841 49.7945 72.4952 50.562 72.2457 51.3106C71.0685 54.8411 71.0685 58.6581 72.2457 62.1886C72.7459 63.688 73.0006 65.2584 72.9999 66.8391V69.8313C72.9999 70.458 72.814 71.0706 72.4657 71.5917C72.1175 72.1128 71.6226 72.519 71.0436 72.7588C70.4645 72.9987 69.8274 73.0615 69.2127 72.9392C68.598 72.817 68.0333 72.5153 67.5901 72.0722L66.3838 70.8661C66.2678 70.75 66.13 70.6579 65.9783 70.5951C65.8266 70.5323 65.6641 70.5 65.4999 70.5C65.3358 70.5 65.1732 70.5323 65.0216 70.5951C64.8699 70.6579 64.7321 70.75 64.616 70.8661L63.8831 71.5989C63.7365 71.7457 63.5805 71.8827 63.416 72.0091L64.9395 73.9912C65.1333 73.8422 65.3196 73.6834 65.4976 73.5156L65.8221 73.8402C66.6149 74.6331 67.6251 75.1732 68.7249 75.392C69.8246 75.6108 70.9646 75.4985 72.0005 75.0694C73.0365 74.6402 73.9219 73.9135 74.5448 72.9811C75.1677 72.0487 75.5001 70.9526 75.4999 69.8313V66.8391C75.5005 64.99 75.2024 63.1529 74.6171 61.3989C73.6112 58.3819 73.6112 55.12 74.6171 52.103C74.9089 51.2273 75.1298 50.3296 75.2777 49.4186C75.4195 48.5489 75.4933 47.6695 75.4985 46.7883C75.4985 46.7755 75.5004 46.763 75.5004 46.75V29.25C75.5016 27.5006 75.1569 25.7683 74.486 24.1527ZM56.7499 6.75V3H64.2499V6.75H56.7499Z" fill="#1A1A1A"/>
<path d="M18.8832 71.5989C17.9858 72.496 16.7689 72.9999 15.5 73C14.2319 72.9964 13.0163 72.493 12.1169 71.5989L11.384 70.8661C11.2679 70.75 11.1301 70.6579 10.9784 70.5951C10.8268 70.5323 10.6642 70.4999 10.5 70.4999C10.3359 70.4999 10.1733 70.5323 10.0217 70.5951C9.87002 70.6579 9.73222 70.75 9.61614 70.8661L8.40989 72.0722C7.96665 72.5153 7.40199 72.817 6.78728 72.9392C6.17258 73.0614 5.53544 72.9987 4.95641 72.7588C4.37739 72.519 3.88248 72.1128 3.53425 71.5917C3.18603 71.0706 3.00013 70.458 3.00005 69.8312V66.8391C3.00024 65.2585 3.25507 63.6883 3.75474 62.1887C4.33964 60.4351 4.63775 58.5986 4.63755 56.75C4.63771 54.9012 4.33961 53.0646 3.75474 51.3108C3.39686 50.2376 3.16458 49.1266 3.06255 48H20.5V45.5H3.00005V30.5H20.5V28H3.07396C3.3489 25.5763 4.44077 23.3184 6.16989 21.598L7.84802 19.9198C8.78198 18.9859 9.57093 17.9175 10.1886 16.75H20.8116C21.4293 17.9175 22.2182 18.9859 23.1521 19.9198L24.9199 18.152C22.8922 16.1214 21.7523 13.3697 21.75 10.5V9.25H23V6.75H21.75V3C21.7493 2.3372 21.4856 1.70177 21.0169 1.2331C20.5483 0.76443 19.9128 0.500786 19.25 0.5H11.75C11.0872 0.500786 10.4518 0.76443 9.98315 1.2331C9.51448 1.70177 9.25083 2.3372 9.25005 3V6.75H8.00005V9.25H9.25005V10.5C9.25247 12.0472 8.92019 13.5766 8.27599 14.9833C7.74098 16.1632 6.9971 17.2367 6.08021 18.152L4.40208 19.8302C3.16113 21.0643 2.17729 22.5323 1.5075 24.1492C0.837715 25.7661 0.495291 27.4998 0.500049 29.25V46.75C0.500049 46.7628 0.501611 46.7752 0.501924 46.7878C0.513485 48.594 0.810808 50.387 1.38286 52.1003C1.88292 53.5995 2.13776 55.1696 2.13755 56.75C2.13775 58.3295 1.88307 59.8987 1.38333 61.397C0.798699 63.1519 0.500455 64.9894 0.500049 66.8391V69.8312C0.499972 70.9525 0.832409 72.0486 1.45532 72.981C2.07823 73.9133 2.96363 74.64 3.99955 75.0691C5.03547 75.4982 6.17538 75.6105 7.27512 75.3918C8.37485 75.173 9.38502 74.633 10.1779 73.8401L10.5024 73.5155C11.8572 74.7855 13.6431 75.4947 15.5 75.5C17.4319 75.4996 19.2846 74.7324 20.6511 73.3669L21.384 72.6339L19.6161 70.8661L18.8832 71.5989ZM11.75 9.25H19.25V10.5C19.2487 11.7694 19.43 13.0323 19.7885 14.25H11.2116C11.5701 13.0323 11.7515 11.7694 11.75 10.5V9.25ZM11.75 3H19.25V6.75H11.75V3Z" fill="#1A1A1A"/>
<path d="M5.5 33H8V35.5H5.5V33Z" fill="#1A1A1A"/>
<path d="M5.5 38H8V43H5.5V38Z" fill="#1A1A1A"/>
<path d="M38 73C36.7318 72.9964 35.5162 72.493 34.6169 71.5989L33.8839 70.8661C33.7678 70.75 33.63 70.6579 33.4784 70.5951C33.3267 70.5323 33.1642 70.5 33 70.5C32.8358 70.5 32.6733 70.5323 32.5216 70.5951C32.37 70.6579 32.2322 70.75 32.1161 70.8661L30.9098 72.0722C30.4667 72.5155 29.902 72.8175 29.2872 72.9398C28.6724 73.0621 28.0352 72.9994 27.4561 72.7595C26.877 72.5196 26.382 72.1134 26.0338 71.5921C25.6856 71.0709 25.4999 70.4581 25.5 69.8313V66.8391C25.5002 65.2585 25.755 63.6883 26.2547 62.1888C27.4318 58.6583 27.4318 54.8412 26.2547 51.3108C25.8968 50.2376 25.6645 49.1266 25.5625 48H35.5V45.5H25.5V30.5H50.5V33H53V29.25C53.0007 26.3166 52.0319 23.4652 50.2442 21.1394C49.8983 20.6855 47.4198 18.152 47.4198 18.152C45.3921 16.1214 44.2522 13.3697 44.25 10.5V9.25H45.5V6.75H44.25V3C44.2492 2.3372 43.9856 1.70177 43.5169 1.2331C43.0482 0.76443 42.4128 0.500786 41.75 0.5H34.25C33.5872 0.500786 32.9518 0.76443 32.4831 1.2331C32.0144 1.70177 31.7508 2.3372 31.75 3V6.75H30.5V9.25H31.75V10.5C31.748 13.3697 30.6081 16.1215 28.5802 18.152L26.902 19.8302C26.4925 20.2392 26.1107 20.675 25.7591 21.1348C23.9745 23.4642 23.0051 26.3156 23 29.25V46.75C23 46.7628 23.0016 46.7753 23.0019 46.788C23.0135 48.5942 23.3108 50.3872 23.8828 52.1005C24.8887 55.1175 24.8887 58.3794 23.8828 61.3964C23.2983 63.1515 23.0002 64.9892 23 66.8391V69.8313C23.0036 70.8968 23.3057 71.94 23.8721 72.8426C24.4384 73.7451 25.2464 74.4709 26.2044 74.9375C27.2638 75.449 28.4561 75.6181 29.616 75.4216C30.776 75.2251 31.846 74.6725 32.6778 73.8406L33.0023 73.5159C34.3572 74.7858 36.1431 75.4948 38 75.5C38.9566 75.5008 39.904 75.3124 40.7875 74.9455L39.8314 72.6356C39.2509 72.8767 38.6285 73.0005 38 73ZM34.25 9.25H41.75V10.5C41.7485 11.7694 41.9299 13.0323 42.2884 14.25H33.7116C34.0701 13.0323 34.2514 11.7694 34.25 10.5V9.25ZM34.25 3H41.75V6.75H34.25V3ZM27.7442 22.6545C28.0227 22.2892 30.348 19.9202 30.348 19.9202C31.282 18.9861 32.0709 17.9176 32.6886 16.75H43.3116C43.9292 17.9175 44.7181 18.9859 45.652 19.9198C45.652 19.9198 47.9773 22.2892 48.2603 22.6605C49.4534 24.2107 50.2018 26.0566 50.4252 28H25.5748C25.8039 26.0555 26.5534 24.2088 27.7442 22.6545Z" fill="#1A1A1A"/>
<path d="M28 33H30.5V35.5H28V33Z" fill="#1A1A1A"/>
<path d="M28 38H30.5V43H28V38Z" fill="#1A1A1A"/>
<path d="M65.5 36.75C65.5 36.4185 65.3683 36.1005 65.1339 35.8661C64.8995 35.6317 64.5815 35.5 64.25 35.5H39.25C38.9185 35.5 38.6005 35.6317 38.3661 35.8661C38.1317 36.1005 38 36.4185 38 36.75V45.9172C37.9989 49.1249 38.7459 52.2886 40.1817 55.157C41.2336 57.2586 41.8667 59.5447 42.0459 61.888L43.0036 74.3458C43.0277 74.6598 43.1695 74.9532 43.4006 75.1671C43.6317 75.3811 43.935 75.5 44.25 75.5H59.25C59.565 75.5 59.8683 75.3811 60.0994 75.1671C60.3305 74.9532 60.4723 74.6598 60.4964 74.3458L61.4541 61.8886C61.6357 59.5458 62.2686 57.2603 63.3178 55.1578C64.7494 52.2876 65.4964 49.1246 65.5 45.9172V36.75ZM63 38V41.75H40.5V38H63ZM61.0817 54.04C59.8879 56.4315 59.1679 59.0313 58.9614 61.6963L58.0925 73H45.4075L44.5386 61.6956C44.3346 59.0302 43.6142 56.4298 42.4177 54.0394C41.1553 51.518 40.4987 48.7369 40.5 45.9172V44.25H63V45.9172C62.9968 48.7366 62.3402 51.517 61.0817 54.04Z" fill="#1A1A1A"/>
<path d="M48 64.25H50.5V66.75H48V64.25Z" fill="#1A1A1A"/>
<path d="M51.75 59.25H54.25V61.75H51.75V59.25Z" fill="#1A1A1A"/>
<path d="M49.25 50.5H51.75V53H49.25V50.5Z" fill="#1A1A1A"/>
</svg>
