<svg width="78" height="78" viewBox="0 0 78 78" fill="none" xmlns="http://www.w3.org/2000/svg">
<path d="M77.1423 59.1774C72.8373 56.5949 67.7673 55.7724 62.8635 56.8599L60.046 57.4862L58.9035 49.4861L60.7923 45.7074C63.706 39.8812 63.9048 33.1049 61.3398 27.1161L59.316 22.3937C55.9185 14.4724 48.266 9.29365 39.6935 9.0249C35.1098 6.03615 29.9498 4.03115 24.4323 3.1824L5.72352 0.303653C4.23727 0.0774029 2.70852 0.574903 1.64102 1.64115C0.574771 2.70865 0.0747711 4.2349 0.303521 5.72365L3.18227 24.4311C4.02852 29.9349 6.02477 35.0799 8.99977 39.6549V43.6362C8.99977 47.3886 11.0173 50.8886 14.2648 52.7699L26.446 59.8224C28.121 60.7924 29.951 61.2611 31.7573 61.2611C34.7623 61.2611 37.696 59.9549 39.766 57.5161L57.486 60.0474L56.8598 62.8649C55.771 67.7674 56.5935 72.8386 59.1773 77.1436C59.4035 77.5199 59.811 77.7499 60.2485 77.7499C60.2748 77.7499 60.2998 77.7486 60.3248 77.7474C60.791 77.7187 61.2023 77.4336 61.391 77.0074L66.196 66.1974L77.0073 61.3924C77.4335 61.2037 77.7185 60.7924 77.7473 60.3261C77.776 59.8599 77.541 59.4161 77.1423 59.1774ZM36.446 54.5149C28.7098 53.4099 21.406 49.7574 15.8798 44.2312C11.4035 39.7549 8.25602 34.2962 6.58977 28.2799C8.17477 28.7436 9.81477 28.9986 11.4998 28.9986C21.1485 28.9986 28.9998 21.1487 28.9998 11.4987C28.9998 9.8149 28.7448 8.1749 28.2798 6.5899C34.296 8.25615 39.7548 11.4037 44.231 15.8799C49.7573 21.4062 53.4098 28.7099 54.5148 36.4461L57.526 57.5261L36.446 54.5149ZM26.0098 56.6786L20.061 53.2349L19.031 50.1449C21.0423 51.5749 23.1948 52.7899 25.4373 53.8174L26.0098 56.6786ZM57.0173 23.3799L58.4823 26.7974L53.4973 24.7261C52.866 23.4186 52.1623 22.1486 51.3898 20.9186L56.816 22.9536C56.881 23.0961 56.9548 23.2337 57.0173 23.3799ZM54.891 28.0124L59.7448 30.0287C60.1048 31.1887 60.3335 32.3736 60.4723 33.5649L56.0748 31.7374C55.741 30.4762 55.3485 29.2336 54.891 28.0124ZM58.556 44.5899L58.281 45.1386L56.9885 36.0924C56.9223 35.6311 56.8173 35.1774 56.7348 34.7199L60.6185 36.3336C60.5448 39.1686 59.8585 41.9862 58.556 44.5899ZM54.826 19.5374L48.791 17.2737C47.9123 16.1762 46.996 15.1087 45.9998 14.1124C45.3035 13.4162 44.581 12.7537 43.8423 12.1174C48.2498 13.2387 52.1398 15.8549 54.826 19.5374ZM3.40852 3.40865C3.83352 2.9849 4.41227 2.7499 5.00477 2.7499C5.11727 2.7499 5.23102 2.75865 5.34352 2.77615L24.051 5.6549C24.5073 5.7249 24.9523 5.83115 25.4048 5.9174C26.1185 7.6899 26.4998 9.5599 26.4998 11.4987C26.4998 19.7699 19.771 26.4986 11.4998 26.4986C9.56102 26.4986 7.68977 26.1174 5.91727 25.4049C5.83102 24.9537 5.72477 24.5086 5.65477 24.0512L4.37227 15.7162C7.41852 17.8424 11.0285 18.9987 14.821 18.9987H17.7485V16.4987H14.821C10.671 16.4987 6.77102 14.9049 3.80227 12.0187L2.77477 5.34365C2.66727 4.6374 2.90352 3.9149 3.40852 3.40865ZM11.4998 43.6349V43.0787C12.3235 44.0849 13.181 45.0674 14.1123 45.9986C14.531 46.4174 14.9798 46.8012 15.416 47.1999L16.7973 51.3449L15.5185 50.6036C13.0385 49.1699 11.4998 46.4999 11.4998 43.6349ZM28.8635 58.1999L28.216 54.9649C30.7623 55.9024 33.3973 56.6049 36.0923 56.9899L36.616 57.0649C34.411 58.7674 31.496 59.2174 28.8635 58.1999ZM64.741 64.1061C64.4573 64.2324 64.2323 64.4574 64.106 64.7411L60.176 73.5836C58.851 70.3786 58.536 66.8436 59.2998 63.4049L60.046 60.0462L63.4048 59.2999C66.846 58.5374 70.3773 58.8524 73.5835 60.1762L64.741 64.1061Z" fill="#1A1A1A"/>
<path d="M14 11.4985C15.3788 11.4985 16.5 10.3773 16.5 8.99853C16.5 7.61978 15.3788 6.49854 14 6.49854C12.6212 6.49854 11.5 7.61978 11.5 8.99853C11.5 10.3773 12.62 11.4985 14 11.4985Z" fill="#1A1A1A"/>
<path d="M34.8838 22.3835L37.3838 19.8835C37.6188 19.6485 37.7488 19.331 37.7488 18.9985V13.9985H35.2488V18.4798L33.4812 20.2473H29V22.7473H34C34.3313 22.7485 34.6488 22.6173 34.8838 22.3835Z" fill="#1A1A1A"/>
<path d="M22.7488 33.9985V28.9985H20.2488V33.4798L18.4812 35.2473H14V37.7473H19C19.3325 37.7473 19.65 37.616 19.885 37.3823L22.385 34.8823C22.6175 34.6485 22.7488 34.331 22.7488 33.9985Z" fill="#1A1A1A"/>
<path d="M33.6338 31.1335C33.8688 30.8985 33.9988 30.581 33.9988 30.2485V25.2485H31.4988V29.7298L29.7312 31.4973H25.25V33.9973H30.25C30.5825 33.9973 30.9 33.866 31.135 33.6323L33.6338 31.1335Z" fill="#1A1A1A"/>
<path d="M36.5 30.2485H41.5C41.8325 30.2485 42.15 30.1173 42.385 29.8835L44.885 27.3835C45.12 27.1485 45.25 26.831 45.25 26.4985V21.4985H42.75V25.9798L40.9825 27.7473H36.5V30.2485Z" fill="#1A1A1A"/>
<path d="M27.7488 40.981L25.9812 42.7485H21.5V45.2485H26.5C26.8325 45.2485 27.15 45.1173 27.385 44.8835L29.885 42.3835C30.12 42.1485 30.25 41.831 30.25 41.4985V36.4985H27.75V40.981H27.7488Z" fill="#1A1A1A"/>
<path d="M41.4987 37.7485V32.7485H38.9987V37.2298L37.2312 38.9973H32.75V41.4973H37.75C38.0825 41.4973 38.4 41.366 38.635 41.1323L41.135 38.6323C41.3675 38.3985 41.4987 38.081 41.4987 37.7485Z" fill="#1A1A1A"/>
<path d="M50.2488 33.481L48.4812 35.2485H45.25V37.7485H49C49.3325 37.7485 49.65 37.6173 49.885 37.3835L52.385 34.8835C52.62 34.6485 52.75 34.331 52.75 33.9985V30.2485H50.25V33.481H50.2488Z" fill="#1A1A1A"/>
<path d="M35.2488 48.481L33.4812 50.2485H30.25V52.7485H34C34.3325 52.7485 34.65 52.6173 34.885 52.3835L37.385 49.8835C37.62 49.6485 37.75 49.331 37.75 48.9985V45.2485H35.25V48.481H35.2488Z" fill="#1A1A1A"/>
<path d="M46.4988 44.731L44.7312 46.4985H40.25V48.9985H45.25C45.5825 48.9985 45.9 48.8673 46.135 48.6335L48.635 46.1335C48.87 45.8985 49 45.581 49 45.2485V40.2485H46.5V44.731H46.4988Z" fill="#1A1A1A"/>
</svg>
