<svg width="78" height="78" viewBox="0 0 78 78" fill="none" xmlns="http://www.w3.org/2000/svg">
<path d="M77.75 43.9363C77.75 38.4938 75.1113 33.2962 70.6913 30.0337C69.79 29.3662 68.6725 29 67.5462 29C66.1363 29 64.815 29.5638 63.845 30.5225C63.6637 30.3713 63.4988 30.205 63.3113 30.0613C62.6175 29.5313 61.785 29.2162 60.93 29.0863L61.4813 23.025C61.4938 22.88 61.5 22.7338 61.5 22.5875C61.5 19.92 59.33 17.75 56.6625 17.75H56.3375C53.67 17.75 51.5 19.92 51.5 22.5875C51.5 22.7338 51.5062 22.88 51.52 23.0263L52.0737 29.1138C51.2812 29.2638 50.515 29.57 49.8675 30.0525C49.6437 30.22 49.445 30.4125 49.23 30.5887C49.1187 30.4737 49.0012 30.3663 48.88 30.2625C48.9512 29.8463 49 29.425 49 29C49 27.4125 48.505 25.8937 47.5875 24.625C48.505 23.3563 49 21.8388 49 20.25C49 15.97 45.3787 12.5012 41.0638 12.7638C40.2612 10.4637 38.39 8.73 36.09 8.06125C34.5675 6.1625 32.2725 5.10875 29.8137 5.26375C28.7787 2.2975 25.9762 0.25 22.75 0.25C20.0438 0.25 17.58 1.6975 16.2525 4.00375C12.9425 4.115 10.0812 6.45125 9.26125 9.63375C5.39125 11.0775 2.75 14.8237 2.75 19C2.75 22.3487 4.3975 25.41 7.12375 27.26C6.7125 28.1987 6.5 29.2138 6.5 30.25C6.5 32.5 7.5 34.5913 9.21625 36.0075C9.0725 36.5875 9 37.1712 9 37.75C9 41.58 11.8875 44.75 15.6 45.1963L18.365 52.94C16.9487 53.9837 15.7425 55.29 14.8138 56.79L8.265 55.335C8.01625 55.2775 7.76 55.25 7.5025 55.25C5.57125 55.25 4 56.8212 4 58.7525V59.2475C4 59.5975 4.0675 59.93 4.16375 60.25H4C1.9325 60.25 0.25 61.9325 0.25 64C0.25 66.0675 1.9325 67.75 4 67.75H4.16375C4.0675 68.07 4 68.4025 4 68.7525V69.2475C4 71.1787 5.57125 72.75 7.5025 72.75C7.76 72.75 8.01625 72.7225 8.2625 72.6662L14.8138 71.21C17.24 75.1275 21.5637 77.75 26.5 77.75H26.7938C27.4888 77.75 28.1925 77.6963 28.8837 77.59L71.7475 70.9962C75.225 70.46 77.75 67.5188 77.75 64C77.75 61.1862 76.1212 58.765 73.6963 57.6237C76.2862 54.53 77.75 50.605 77.75 46.5637V43.9363ZM61.7913 32.0475C65.5225 34.9 67.75 39.4438 67.75 44.205V48.7963C67.75 51.3588 67.1113 53.8675 65.9075 56.1063L55.8838 54.5638C55.4712 52.75 55.25 50.8975 55.25 49.0375V43.9625C55.25 42.7025 55.3763 41.4438 55.5675 40.1963C55.8738 40.2225 56.1787 40.25 56.5 40.25C60.0638 40.25 62.75 38.6375 62.75 36.5C62.75 35.32 61.9338 34.2725 60.52 33.585L60.7038 31.5625C61.0938 31.6412 61.4688 31.7987 61.7913 32.0475ZM56.3375 20.25H56.6637C57.9525 20.25 59.0013 21.2988 59.0013 22.5875C59.0013 22.6588 58.9987 22.73 58.9912 22.8L57.8562 35.2838L58.81 35.59C59.905 35.94 60.25 36.4012 60.25 36.5C60.25 36.8112 58.92 37.75 56.5 37.75C54.08 37.75 52.75 36.8112 52.75 36.5C52.75 36.4012 53.095 35.94 54.19 35.5887L55.1438 35.2825L54.0088 22.8C54.0025 22.7288 54 22.6575 54 22.5875C54 21.2988 55.0487 20.25 56.3375 20.25ZM52.3 31.6038L52.48 33.585C51.0662 34.2725 50.25 35.32 50.25 36.5C50.25 37.8775 51.3738 39.0287 53.12 39.6787C52.8963 41.0975 52.75 42.53 52.75 43.9625V49.0375C52.75 50.755 52.915 52.47 53.235 54.1562L45.8662 53.0225C45.465 51.6487 45.25 50.2325 45.25 48.795V44.2037C45.25 39.45 47.535 34.9075 51.3625 32.055C51.6413 31.8475 51.9625 31.695 52.3 31.6038ZM38.7913 51.9338C38.1125 50.2163 37.75 48.4175 37.75 46.5637V43.935C37.75 39.2825 40.01 34.8375 43.7937 32.0425C44.2687 31.6925 44.8587 31.5 45.4537 31.5C46.2087 31.5 46.9037 31.8037 47.4125 32.3125C44.465 35.5425 42.75 39.785 42.75 44.205V48.7963C42.75 50.085 42.9038 51.36 43.1825 52.61L38.7913 51.9338ZM38.9087 14.3762L39.1363 15.6625L40.4113 15.3787C40.7988 15.2925 41.155 15.25 41.5 15.25C44.2575 15.25 46.5 17.4925 46.5 20.25C46.5 21.5637 45.99 22.8062 45.065 23.7487L44.205 24.625L45.065 25.5013C45.99 26.4438 46.5 27.6863 46.5 29C46.5 29.0375 46.4925 29.075 46.4925 29.1138C46.1537 29.0462 45.8087 29 45.4537 29C44.3275 29 43.21 29.3663 42.3088 30.0325C40.0337 31.7113 38.2425 33.9075 37.0275 36.3813C36.5538 34.9062 36.0563 33.4937 35.5438 32.1525C36.7 26.045 40.9888 22.51 41.0325 22.4737L40.25 21.5L39.4688 20.5238C39.295 20.6625 35.9137 23.4237 34.015 28.405C31.4137 22.4325 28.9587 18.5688 28.8013 18.3237L26.6975 19.6763C26.7313 19.7275 28.6375 22.7262 30.8563 27.5C27.1175 26.0925 22.8687 26.4812 22.625 26.5062L22.8738 28.9938C24.7538 28.805 30.0788 28.8962 32.5662 31.435C33.4425 33.5887 34.3062 35.95 35.0687 38.48C31.2687 36.5312 26.735 36.5 26.5 36.5V39C26.5588 39 32.1238 39.0375 35.4175 41.6562C35.315 42.4087 35.25 43.1688 35.25 43.9363V46.565C35.25 48.2537 35.51 49.905 35.9925 51.505L28.8837 50.4113C28.5087 50.3538 28.13 50.315 27.75 50.2875C24.9925 50.2875 22.75 48.0275 22.75 45.2513C22.75 44.6688 22.8662 44.0712 23.0938 43.4725L23.4587 42.5163L22.5925 41.9688C21.1263 41.0412 20.25 39.465 20.25 37.75C20.25 36.7663 20.5387 35.8125 21.085 34.99L21.8638 33.82L20.6112 33.1838C18.075 31.8938 16.5 29.3337 16.5 26.5C16.5 23.1737 18.735 20.2113 21.9363 19.295L22.7125 19.0725L22.8288 18.2738C23.185 15.8375 25.3013 14 27.75 14C27.7962 14 27.8412 14.01 27.8862 14.0162C27.9737 14.0287 28.0625 14.04 28.1512 14.0462L29.0475 14.1188L29.4 13.2912C30.1887 11.4437 31.9937 10.25 34 10.25C36.4225 10.25 38.4863 11.985 38.9087 14.3762ZM17.3813 42.75H16.5C13.7425 42.75 11.5 40.5075 11.5 37.75C11.5 37.1662 11.6162 36.5687 11.8438 35.9725L12.21 35.0163L11.3438 34.4688C9.87625 33.5412 9 31.965 9 30.25C9 29.2663 9.28875 28.3125 9.835 27.49L10.6138 26.32L9.36125 25.6838C6.825 24.3938 5.25 21.8337 5.25 19C5.25 15.6737 7.485 12.7113 10.685 11.795L11.4613 11.5725L11.5775 10.7737C11.935 8.3375 14.0513 6.5 16.5 6.5C16.5475 6.5 16.5938 6.51 16.64 6.51625C16.725 6.5275 16.81 6.53875 16.8975 6.54625L17.7975 6.62125L18.1513 5.79C18.9387 3.94375 20.7437 2.75 22.75 2.75C25.1725 2.75 27.2362 4.485 27.6588 6.87625L27.8862 8.1625L29.1612 7.87875C29.5487 7.7925 29.905 7.75 30.25 7.75C30.825 7.75 31.3713 7.87625 31.8938 8.05875C30.0563 8.59625 28.4737 9.81625 27.5025 11.5037C24.1925 11.615 21.3312 13.9513 20.5112 17.1338C16.6412 18.5775 14 22.3237 14 26.5C14 29.8487 15.6475 32.91 18.3737 34.76C17.9625 35.6987 17.75 36.7137 17.75 37.75C17.75 40 18.75 42.0912 20.4663 43.5087C20.3225 44.0887 20.25 44.6712 20.25 45.25C20.25 47.4463 21.195 49.42 22.6912 50.7975C21.9487 51.0125 21.235 51.2912 20.55 51.6225L17.3813 42.75ZM6.5 59.2475V58.7525C6.5 58.125 7.1075 57.6413 7.72125 57.7738L13.67 59.0962C13.525 59.4738 13.395 59.8575 13.2838 60.25H7.5025C6.95 60.25 6.5 59.8 6.5 59.2475ZM2.75 64C2.75 63.3112 3.31125 62.75 4 62.75H7.5025H12.8125C12.7762 63.1625 12.75 63.5775 12.75 64C12.75 64.4225 12.7762 64.8375 12.8137 65.25H7.5025H4C3.31125 65.25 2.75 64.6888 2.75 64ZM7.71875 70.2262C7.12625 70.3538 6.5 69.8737 6.5 69.2475V68.7525C6.5 68.2 6.95 67.75 7.5025 67.75H13.2825C13.3937 68.1425 13.525 68.5263 13.6687 68.9037L7.71875 70.2262ZM75.25 64C75.25 66.2763 73.6175 68.1787 71.3688 68.525L28.5062 75.1188C27.9387 75.2063 27.3625 75.25 26.7938 75.25H26.5C20.2975 75.25 15.25 70.2025 15.25 64C15.25 57.7975 20.2975 52.75 26.5 52.75H26.7938C27.3625 52.75 27.9387 52.7938 28.505 52.88L71.3675 59.4738C73.6175 59.8213 75.25 61.7238 75.25 64ZM75.25 46.5637C75.25 50.4087 73.6937 54.1287 70.9863 56.8862L68.5025 56.5037C69.6438 54.1062 70.25 51.4775 70.25 48.795V44.2037C70.25 39.7612 68.5575 35.4975 65.65 32.2625C66.155 31.7863 66.825 31.5 67.5462 31.5C68.1425 31.5 68.7313 31.6925 69.2063 32.045C72.99 34.8375 75.25 39.2838 75.25 43.9363V46.5637Z" fill="#1A1A1A"/>
<path d="M25.25 57.75H27.75V70.25H25.25V57.75Z" fill="#1A1A1A"/>
<path d="M35.25 57.75H37.75V70.25H35.25V57.75Z" fill="#1A1A1A"/>
<path d="M45.25 57.75H47.75V70.25H45.25V57.75Z" fill="#1A1A1A"/>
<path d="M55.25 60.25H57.75V67.75H55.25V60.25Z" fill="#1A1A1A"/>
<path d="M65.25 61.5H67.75V66.5H65.25V61.5Z" fill="#1A1A1A"/>
</svg>
